<?xml version="1.0" standalone="no"?>
<!DOCTYPE svg PUBLIC "-//W3C//DTD SVG 20010904//EN"
 "http://www.w3.org/TR/2001/REC-SVG-20010904/DTD/svg10.dtd">
<svg version="1.0" xmlns="http://www.w3.org/2000/svg"
 width="260.000000pt" height="260.000000pt" viewBox="0 0 260.000000 260.000000"
 preserveAspectRatio="xMidYMid meet">
<metadata>
Created by potrace 1.14, written by Peter Selinger 2001-2017
</metadata>
<g transform="translate(0.000000,260.000000) scale(0.100000,-0.100000)"
fill="#000000" stroke="none">
<path d="M1060 2235 l0 -34 -77 -3 -78 -3 -3 -37 c-3 -37 -4 -38 -43 -38 -39
0 -39 0 -39 -40 l0 -40 -75 0 -75 0 0 40 0 40 -235 0 -235 0 0 -40 0 -40 -40
0 -40 0 0 -200 0 -200 40 0 40 0 0 -40 c0 -39 1 -40 35 -40 33 0 35 -2 35 -35
0 -34 1 -35 40 -35 l40 0 0 -40 0 -40 40 0 40 0 0 -40 0 -40 40 0 40 0 0 -80
0 -80 40 0 40 0 0 -75 0 -75 40 0 40 0 0 -40 c0 -39 1 -40 34 -40 33 0 35 -2
38 -37 3 -36 5 -38 40 -41 35 -3 37 -5 40 -40 3 -35 5 -37 41 -40 35 -3 37 -5
37 -38 0 -33 1 -34 40 -34 l40 0 0 -40 0 -40 40 0 40 0 0 -40 0 -40 40 0 40 0
0 -40 0 -40 40 0 40 0 0 -40 0 -40 74 0 75 0 3 -38 3 -37 275 0 275 0 3 37 c3
35 5 37 40 40 35 3 37 5 40 41 3 35 5 37 38 37 l34 0 0 80 0 80 40 0 40 0 0
74 0 75 38 3 37 3 3 118 3 117 39 0 40 0 0 74 0 75 38 3 37 3 3 353 2 352 40
0 40 0 0 195 0 195 -85 0 -85 0 0 -35 0 -35 -75 0 -75 0 0 -40 0 -40 -74 0
-75 0 -3 38 -3 37 -77 3 -78 3 0 34 0 35 -395 0 -395 0 0 -35z m160 -86 l0
-40 38 3 c35 3 37 5 40 41 l3 37 115 0 114 0 0 -40 0 -40 40 0 40 0 0 40 0 40
80 0 80 0 0 -40 0 -40 75 0 75 0 0 -35 c0 -33 -2 -35 -35 -35 -34 0 -35 -1
-35 -40 0 -39 1 -40 34 -40 33 0 35 2 38 38 l3 37 78 3 77 3 0 -41 0 -40 40 0
40 0 0 80 0 80 80 0 80 0 0 35 c0 33 2 35 35 35 l35 0 0 -155 0 -155 -35 0
-35 0 0 -195 0 -195 -40 0 -40 0 0 40 0 40 -40 0 -40 0 0 -40 0 -40 -80 0 -80
0 0 -120 0 -120 40 0 40 0 0 -75 0 -75 40 0 40 0 0 -40 0 -40 -235 0 -235 0 0
40 0 40 -40 0 -40 0 0 -80 0 -80 40 0 40 0 0 -40 0 -40 75 0 75 0 0 -75 0 -75
-75 0 -75 0 0 -40 0 -40 115 0 115 0 0 -35 0 -35 -115 0 -115 0 0 35 0 35 -80
0 -80 0 0 40 0 40 -40 0 -40 0 0 195 0 195 40 0 40 0 0 40 0 40 40 0 40 0 0
115 0 115 -40 0 -40 0 0 40 0 40 -235 0 -235 0 0 -40 0 -40 120 0 120 0 0 -40
0 -40 75 0 75 0 0 -75 0 -75 -40 0 -40 0 0 -80 0 -80 -35 0 -35 0 0 -75 0 -75
-40 0 c-40 0 -40 0 -40 -39 0 -39 1 -40 38 -43 l37 -3 3 -77 3 -78 34 0 c32 0
34 -2 37 -38 3 -35 5 -37 40 -40 35 -3 37 -5 40 -40 l3 -37 233 -3 232 -2 0
-35 0 -35 -269 0 -270 0 -3 38 -3 37 -77 3 -78 3 0 34 c0 34 -1 35 -40 35
l-40 0 0 40 0 40 -40 0 -40 0 0 40 0 40 -40 0 -40 0 0 40 c0 39 -1 40 -34 40
-33 0 -35 2 -38 38 -3 35 -5 37 -40 40 -36 3 -38 5 -38 38 0 33 -1 34 -40 34
l-40 0 0 40 0 40 -40 0 -40 0 0 80 0 80 -40 0 -40 0 0 75 0 75 -40 0 -40 0 0
40 0 40 -40 0 -40 0 0 40 c0 39 -1 40 -35 40 -34 0 -35 1 -35 40 l0 40 -40 0
-40 0 0 40 0 40 -40 0 -40 0 0 195 0 195 235 0 235 0 0 -40 0 -40 40 0 40 0 0
-40 0 -40 40 0 40 0 0 80 0 80 40 0 c39 0 40 1 40 35 0 33 2 35 35 35 33 0 35
-2 35 -35 0 -34 1 -35 40 -35 39 0 40 1 40 35 0 34 1 35 40 35 l40 0 0 40 0
40 40 0 40 0 0 -41z m1098 -776 c-3 -36 -5 -38 -40 -41 -36 -3 -38 -5 -38 -37
0 -32 2 -34 38 -37 35 -3 37 -5 40 -40 l3 -38 -80 0 -81 0 0 115 0 115 81 0
80 0 -3 -37z m-158 -508 l0 -75 -40 0 -40 0 0 -40 0 -40 -40 0 -40 0 0 40 c0
39 -1 40 -35 40 -33 0 -35 2 -35 35 l0 35 75 0 75 0 0 40 0 40 40 0 40 0 0
-75z m-160 -350 c0 -33 -2 -35 -35 -35 -33 0 -35 2 -35 35 0 33 2 35 35 35 33
0 35 -2 35 -35z"/>
<path d="M1370 2075 c0 -33 -2 -35 -35 -35 -34 0 -35 -1 -35 -40 l0 -40 -40 0
-40 0 0 40 0 40 -40 0 -40 0 0 -40 0 -40 -40 0 -40 0 0 -40 0 -40 40 0 40 0 0
-40 0 -40 40 0 40 0 0 40 0 40 40 0 40 0 0 40 c0 39 1 40 35 40 34 0 35 1 35
40 l0 40 40 0 c39 0 40 1 40 35 0 34 -1 35 -40 35 -39 0 -40 -1 -40 -35z"/>
<path d="M1690 2075 c0 -34 1 -35 40 -35 39 0 40 1 40 35 0 34 -1 35 -40 35
-39 0 -40 -1 -40 -35z"/>
<path d="M1530 2000 l0 -40 40 0 40 0 0 40 0 40 -40 0 -40 0 0 -40z"/>
<path d="M1690 1920 l0 -40 -40 0 -40 0 0 -40 0 -40 40 0 40 0 0 -41 0 -40 38
3 c35 3 37 5 40 40 3 35 5 37 40 40 35 3 37 5 40 41 l3 37 -40 0 -41 0 0 40 0
40 -40 0 -40 0 0 -40z"/>
<path d="M1450 1840 l0 -40 40 0 40 0 0 40 0 40 -40 0 -40 0 0 -40z"/>
<path d="M2000 1840 l0 -40 40 0 40 0 0 40 0 40 -40 0 -40 0 0 -40z"/>
<path d="M280 1760 c0 -39 1 -40 34 -40 33 0 35 -2 38 -37 3 -36 5 -38 41 -41
35 -3 37 -5 37 -38 0 -33 1 -34 40 -34 l40 0 0 -40 0 -40 80 0 80 0 0 40 0 40
-80 0 -80 0 0 40 0 40 -40 0 c-39 0 -40 1 -40 35 0 33 -2 35 -35 35 -34 0 -35
1 -35 40 l0 40 -40 0 -40 0 0 -40z"/>
<path d="M1530 1610 l0 -40 40 0 40 0 0 40 0 40 -40 0 -40 0 0 -40z"/>
<path d="M2000 1610 l0 -40 40 0 40 0 0 40 0 40 -40 0 -40 0 0 -40z"/>
<path d="M900 1370 c0 -39 -1 -40 -35 -40 -33 0 -35 -2 -35 -35 0 -33 2 -35
35 -35 34 0 35 -1 35 -40 0 -40 0 -40 39 -40 39 0 40 1 43 38 3 35 5 37 41 40
35 3 37 5 37 38 0 33 -1 34 -40 34 l-40 0 0 40 0 40 -40 0 -40 0 0 -40z"/>
<path d="M750 1140 l0 -40 40 0 40 0 0 40 0 40 -40 0 -40 0 0 -40z"/>
<path d="M900 1060 l0 -40 40 0 40 0 0 40 0 40 -40 0 -40 0 0 -40z"/>
</g>
</svg>
