<?xml version="1.0" encoding="UTF-8"?>
<svg id="Layer_7" data-name="Layer 7" xmlns="http://www.w3.org/2000/svg" viewBox="0 0 1600 1409.5">
  <defs>
    <style>
      .cls-1 {
        fill: #fd2054;
      }

      .cls-1, .cls-2, .cls-3, .cls-4 {
        stroke-width: 0px;
      }

      .cls-2 {
        fill: #1e1e1e;
      }

      .cls-3 {
        fill: #05fcd9;
      }

      .cls-4 {
        fill: #fff;
      }
    </style>
  </defs>
  <rect class="cls-3" x="1552.5" y="88" width="50" height="50"/>
  <rect class="cls-3" x="1552.5" y="38" width="50" height="50"/>
  <rect class="cls-3" x="1552.5" y="338" width="50" height="50"/>
  <rect class="cls-3" x="1552.5" y="288" width="50" height="50"/>
  <rect class="cls-3" x="1552.5" y="238" width="50" height="50"/>
  <rect class="cls-3" x="1552.5" y="188" width="50" height="50"/>
  <rect class="cls-3" x="1552.5" y="138" width="50" height="50"/>
  <rect class="cls-2" x="1502.5" y="88" width="50" height="50"/>
  <rect class="cls-3" x="1502.5" y="38" width="50" height="50"/>
  <rect class="cls-3" x="1502.5" y="788" width="50" height="50"/>
  <rect class="cls-3" x="1502.5" y="738" width="50" height="50"/>
  <rect class="cls-3" x="1502.5" y="688" width="50" height="50"/>
  <rect class="cls-3" x="1502.5" y="638" width="50" height="50"/>
  <rect class="cls-3" x="1502.5" y="588" width="50" height="50"/>
  <rect class="cls-3" x="1502.5" y="538" width="50" height="50"/>
  <rect class="cls-3" x="1502.5" y="488" width="50" height="50"/>
  <rect class="cls-3" x="1502.5" y="438" width="50" height="50"/>
  <rect class="cls-3" x="1502.5" y="388" width="50" height="50"/>
  <rect class="cls-3" x="1502.5" y="338" width="50" height="50"/>
  <rect class="cls-2" x="1502.5" y="288" width="50" height="50"/>
  <rect class="cls-2" x="1502.5" y="238" width="50" height="50"/>
  <rect class="cls-2" x="1502.5" y="188" width="50" height="50"/>
  <rect class="cls-2" x="1502.5" y="138" width="50" height="50"/>
  <rect class="cls-2" x="1452.5" y="88" width="50" height="50"/>
  <rect class="cls-3" x="1452.5" y="38" width="50" height="50"/>
  <rect class="cls-3" x="1452.5" y="888" width="50" height="50"/>
  <rect class="cls-3" x="1452.5" y="838" width="50" height="50"/>
  <rect class="cls-3" x="1452.5" y="788" width="50" height="50"/>
  <rect class="cls-2" x="1452.5" y="738" width="50" height="50"/>
  <rect class="cls-2" x="1452.5" y="688" width="50" height="50"/>
  <rect class="cls-2" x="1452.5" y="638" width="50" height="50"/>
  <rect class="cls-2" x="1452.5" y="588" width="50" height="50"/>
  <rect class="cls-2" x="1452.5" y="538" width="50" height="50"/>
  <rect class="cls-2" x="1452.5" y="488" width="50" height="50"/>
  <rect class="cls-2" x="1452.5" y="438" width="50" height="50"/>
  <rect class="cls-2" x="1452.5" y="388" width="50" height="50"/>
  <rect class="cls-2" x="1452.5" y="338" width="50" height="50"/>
  <rect class="cls-4" x="1452.5" y="288" width="50" height="50"/>
  <rect class="cls-4" x="1452.5" y="238" width="50" height="50"/>
  <rect class="cls-4" x="1452.5" y="188" width="50" height="50"/>
  <rect class="cls-4" x="1452.5" y="138" width="50" height="50"/>
  <rect class="cls-2" x="1402.5" y="138" width="50" height="50"/>
  <rect class="cls-3" x="1402.5" y="88" width="50" height="50"/>
  <rect class="cls-3" x="1402.5" y="38" width="50" height="50"/>
  <rect class="cls-3" x="1402.5" y="1038" width="50" height="50"/>
  <rect class="cls-3" x="1402.5" y="988" width="50" height="50"/>
  <rect class="cls-3" x="1402.5" y="938" width="50" height="50"/>
  <rect class="cls-3" x="1402.5" y="888" width="50" height="50"/>
  <rect class="cls-2" x="1402.5" y="838" width="50" height="50"/>
  <rect class="cls-2" x="1402.5" y="788" width="50" height="50"/>
  <rect class="cls-4" x="1402.5" y="738" width="50" height="50"/>
  <rect class="cls-1" x="1402.5" y="688" width="50" height="50"/>
  <rect class="cls-4" x="1402.5" y="638" width="50" height="50"/>
  <rect class="cls-1" x="1402.5" y="588" width="50" height="50"/>
  <rect class="cls-4" x="1402.5" y="538" width="50" height="50"/>
  <rect class="cls-4" x="1402.5" y="488" width="50" height="50"/>
  <rect class="cls-4" x="1402.5" y="438" width="50" height="50"/>
  <rect class="cls-4" x="1402.5" y="388" width="50" height="50"/>
  <rect class="cls-4" x="1402.5" y="338" width="50" height="50"/>
  <rect class="cls-4" x="1402.5" y="288" width="50" height="50"/>
  <rect class="cls-4" x="1402.5" y="238" width="50" height="50"/>
  <rect class="cls-4" x="1402.5" y="188" width="50" height="50"/>
  <rect class="cls-2" x="1352.5" y="138" width="50" height="50"/>
  <rect class="cls-3" x="1352.5" y="88" width="50" height="50"/>
  <rect class="cls-3" x="1352.5" y="1138" width="50" height="50"/>
  <rect class="cls-3" x="1352.5" y="1088" width="50" height="50"/>
  <rect class="cls-3" x="1352.5" y="1038" width="50" height="50"/>
  <rect class="cls-2" x="1352.5" y="988" width="50" height="50"/>
  <rect class="cls-2" x="1352.5" y="938" width="50" height="50"/>
  <rect class="cls-2" x="1352.5" y="888" width="50" height="50"/>
  <rect class="cls-2" x="1352.5" y="838" width="50" height="50"/>
  <rect class="cls-2" x="1352.5" y="788" width="50" height="50"/>
  <rect class="cls-4" x="1352.5" y="738" width="50" height="50"/>
  <rect class="cls-4" x="1352.5" y="688" width="50" height="50"/>
  <rect class="cls-4" x="1352.5" y="638" width="50" height="50"/>
  <rect class="cls-2" x="1352.5" y="588" width="50" height="50"/>
  <rect class="cls-2" x="1352.5" y="538" width="50" height="50"/>
  <rect class="cls-4" x="1352.5" y="488" width="50" height="50"/>
  <rect class="cls-4" x="1352.5" y="438" width="50" height="50"/>
  <rect class="cls-4" x="1352.5" y="388" width="50" height="50"/>
  <rect class="cls-4" x="1352.5" y="338" width="50" height="50"/>
  <rect class="cls-4" x="1352.5" y="288" width="50" height="50"/>
  <rect class="cls-4" x="1352.5" y="238" width="50" height="50"/>
  <rect class="cls-4" x="1352.5" y="188" width="50" height="50"/>
  <rect class="cls-3" x="1302.5" y="138" width="50" height="50"/>
  <rect class="cls-3" x="1302.5" y="88" width="50" height="50"/>
  <rect class="cls-3" x="1302.5" y="1238" width="50" height="50"/>
  <rect class="cls-3" x="1302.5" y="1188" width="50" height="50"/>
  <rect class="cls-3" x="1302.5" y="1138" width="50" height="50"/>
  <rect class="cls-2" x="1302.5" y="1088" width="50" height="50"/>
  <rect class="cls-2" x="1302.5" y="1038" width="50" height="50"/>
  <rect class="cls-4" x="1302.5" y="988" width="50" height="50"/>
  <rect class="cls-4" x="1302.5" y="938" width="50" height="50"/>
  <rect class="cls-2" x="1302.5" y="888" width="50" height="50"/>
  <rect class="cls-4" x="1302.5" y="838" width="50" height="50"/>
  <rect class="cls-2" x="1302.5" y="788" width="50" height="50"/>
  <rect class="cls-2" x="1302.5" y="738" width="50" height="50"/>
  <rect class="cls-2" x="1302.5" y="688" width="50" height="50"/>
  <rect class="cls-2" x="1302.5" y="638" width="50" height="50"/>
  <rect class="cls-2" x="1302.5" y="588" width="50" height="50"/>
  <rect class="cls-4" x="1302.5" y="538" width="50" height="50"/>
  <rect class="cls-4" x="1302.5" y="488" width="50" height="50"/>
  <rect class="cls-4" x="1302.5" y="438" width="50" height="50"/>
  <rect class="cls-4" x="1302.5" y="388" width="50" height="50"/>
  <rect class="cls-4" x="1302.5" y="338" width="50" height="50"/>
  <rect class="cls-4" x="1302.5" y="288" width="50" height="50"/>
  <rect class="cls-2" x="1302.5" y="238" width="50" height="50"/>
  <rect class="cls-2" x="1302.5" y="188" width="50" height="50"/>
  <rect class="cls-3" x="1252.5" y="138" width="50" height="50"/>
  <rect class="cls-3" x="1252.5" y="88" width="50" height="50"/>
  <rect class="cls-3" x="1252.5" y="1288" width="50" height="50"/>
  <rect class="cls-3" x="1252.5" y="1238" width="50" height="50"/>
  <rect class="cls-2" x="1252.5" y="1188" width="50" height="50"/>
  <rect class="cls-2" x="1252.5" y="1138" width="50" height="50"/>
  <rect class="cls-2" x="1252.5" y="1088" width="50" height="50"/>
  <rect class="cls-4" x="1252.5" y="1038" width="50" height="50"/>
  <rect class="cls-4" x="1252.5" y="988" width="50" height="50"/>
  <rect class="cls-2" x="1252.5" y="938" width="50" height="50"/>
  <rect class="cls-2" x="1252.5" y="888" width="50" height="50"/>
  <rect class="cls-4" x="1252.5" y="838" width="50" height="50"/>
  <rect class="cls-4" x="1252.5" y="788" width="50" height="50"/>
  <rect class="cls-4" x="1252.5" y="738" width="50" height="50"/>
  <rect class="cls-2" x="1252.5" y="688" width="50" height="50"/>
  <rect class="cls-2" x="1252.5" y="638" width="50" height="50"/>
  <rect class="cls-2" x="1252.5" y="588" width="50" height="50"/>
  <rect class="cls-4" x="1252.5" y="538" width="50" height="50"/>
  <rect class="cls-2" x="1252.5" y="488" width="50" height="50"/>
  <rect class="cls-4" x="1252.5" y="438" width="50" height="50"/>
  <rect class="cls-4" x="1252.5" y="388" width="50" height="50"/>
  <rect class="cls-1" x="1252.5" y="338" width="50" height="50"/>
  <rect class="cls-4" x="1252.5" y="288" width="50" height="50"/>
  <rect class="cls-4" x="1252.5" y="238" width="50" height="50"/>
  <rect class="cls-2" x="1252.5" y="188" width="50" height="50"/>
  <rect class="cls-3" x="1202.5" y="88" width="50" height="50"/>
  <rect class="cls-3" x="1202.5" y="1338" width="50" height="50"/>
  <rect class="cls-3" x="1202.5" y="1288" width="50" height="50"/>
  <rect class="cls-2" x="1202.5" y="1238" width="50" height="50"/>
  <rect class="cls-4" x="1202.5" y="1188" width="50" height="50"/>
  <rect class="cls-2" x="1202.5" y="1138" width="50" height="50"/>
  <rect class="cls-2" x="1202.5" y="1088" width="50" height="50"/>
  <rect class="cls-2" x="1202.5" y="1038" width="50" height="50"/>
  <rect class="cls-4" x="1202.5" y="988" width="50" height="50"/>
  <rect class="cls-2" x="1202.5" y="938" width="50" height="50"/>
  <rect class="cls-2" x="1202.5" y="888" width="50" height="50"/>
  <rect class="cls-4" x="1202.5" y="838" width="50" height="50"/>
  <rect class="cls-4" x="1202.5" y="788" width="50" height="50"/>
  <rect class="cls-4" x="1202.5" y="738" width="50" height="50"/>
  <rect class="cls-4" x="1202.5" y="688" width="50" height="50"/>
  <rect class="cls-4" x="1202.5" y="638" width="50" height="50"/>
  <rect class="cls-4" x="1202.5" y="588" width="50" height="50"/>
  <rect class="cls-4" x="1202.5" y="538" width="50" height="50"/>
  <rect class="cls-4" x="1202.5" y="488" width="50" height="50"/>
  <rect class="cls-4" x="1202.5" y="438" width="50" height="50"/>
  <rect class="cls-4" x="1202.5" y="388" width="50" height="50"/>
  <rect class="cls-4" x="1202.5" y="338" width="50" height="50"/>
  <rect class="cls-4" x="1202.5" y="288" width="50" height="50"/>
  <rect class="cls-4" x="1202.5" y="238" width="50" height="50"/>
  <rect class="cls-2" x="1202.5" y="138" width="50" height="50"/>
  <rect class="cls-2" x="1202.5" y="188" width="50" height="50"/>
  <rect class="cls-3" x="1152.5" y="88" width="50" height="50"/>
  <rect class="cls-3" x="1152.5" y="38" width="50" height="50"/>
  <rect class="cls-3" x="1152.5" y="1338" width="50" height="50"/>
  <rect class="cls-2" x="1152.5" y="1288" width="50" height="50"/>
  <rect class="cls-4" x="1152.5" y="1238" width="50" height="50"/>
  <rect class="cls-2" x="1152.5" y="1188" width="50" height="50"/>
  <rect class="cls-3" x="1152.5" y="1138" width="50" height="50"/>
  <rect class="cls-2" x="1152.5" y="1088" width="50" height="50"/>
  <rect class="cls-2" x="1152.5" y="1038" width="50" height="50"/>
  <rect class="cls-2" x="1152.5" y="988" width="50" height="50"/>
  <rect class="cls-2" x="1152.5" y="938" width="50" height="50"/>
  <rect class="cls-2" x="1152.5" y="888" width="50" height="50"/>
  <rect class="cls-4" x="1152.5" y="838" width="50" height="50"/>
  <rect class="cls-4" x="1152.5" y="788" width="50" height="50"/>
  <rect class="cls-4" x="1152.5" y="738" width="50" height="50"/>
  <rect class="cls-4" x="1152.5" y="688" width="50" height="50"/>
  <rect class="cls-4" x="1152.5" y="638" width="50" height="50"/>
  <rect class="cls-4" x="1152.5" y="588" width="50" height="50"/>
  <rect class="cls-4" x="1152.5" y="538" width="50" height="50"/>
  <rect class="cls-4" x="1152.5" y="488" width="50" height="50"/>
  <rect class="cls-4" x="1152.5" y="438" width="50" height="50"/>
  <rect class="cls-4" x="1152.5" y="388" width="50" height="50"/>
  <rect class="cls-4" x="1152.5" y="338" width="50" height="50"/>
  <rect class="cls-4" x="1152.5" y="288" width="50" height="50"/>
  <rect class="cls-1" x="1152.5" y="238" width="50" height="50"/>
  <rect class="cls-4" x="1152.5" y="188" width="50" height="50"/>
  <rect class="cls-2" x="1152.5" y="138" width="50" height="50"/>
  <rect class="cls-2" x="1102.5" y="88" width="50" height="50"/>
  <rect class="cls-3" x="1102.5" y="38" width="50" height="50"/>
  <rect class="cls-3" x="1102.5" y="1338" width="50" height="50"/>
  <rect class="cls-2" x="1102.5" y="1288" width="50" height="50"/>
  <rect class="cls-4" x="1102.5" y="1238" width="50" height="50"/>
  <rect class="cls-2" x="1102.5" y="1188" width="50" height="50"/>
  <rect class="cls-3" x="1102.5" y="1138" width="50" height="50"/>
  <rect class="cls-2" x="1102.5" y="1088" width="50" height="50"/>
  <rect class="cls-4" x="1102.5" y="1038" width="50" height="50"/>
  <rect class="cls-4" x="1102.5" y="988" width="50" height="50"/>
  <rect class="cls-2" x="1102.5" y="938" width="50" height="50"/>
  <rect class="cls-2" x="1102.5" y="888" width="50" height="50"/>
  <rect class="cls-4" x="1102.5" y="838" width="50" height="50"/>
  <rect class="cls-4" x="1102.5" y="788" width="50" height="50"/>
  <rect class="cls-4" x="1102.5" y="738" width="50" height="50"/>
  <rect class="cls-4" x="1102.5" y="688" width="50" height="50"/>
  <rect class="cls-4" x="1102.5" y="638" width="50" height="50"/>
  <rect class="cls-4" x="1102.5" y="588" width="50" height="50"/>
  <rect class="cls-4" x="1102.5" y="538" width="50" height="50"/>
  <rect class="cls-4" x="1102.5" y="488" width="50" height="50"/>
  <rect class="cls-4" x="1102.5" y="438" width="50" height="50"/>
  <rect class="cls-4" x="1102.5" y="388" width="50" height="50"/>
  <rect class="cls-1" x="1102.5" y="338" width="50" height="50"/>
  <rect class="cls-4" x="1102.5" y="288" width="50" height="50"/>
  <rect class="cls-4" x="1102.5" y="238" width="50" height="50"/>
  <rect class="cls-4" x="1102.5" y="188" width="50" height="50"/>
  <rect class="cls-2" x="1102.5" y="138" width="50" height="50"/>
  <rect class="cls-2" x="1052.5" y="88" width="50" height="50"/>
  <rect class="cls-3" x="1052.5" y="38" width="50" height="50"/>
  <rect class="cls-3" x="1052.5" y="1338" width="50" height="50"/>
  <rect class="cls-2" x="1052.5" y="1288" width="50" height="50"/>
  <rect class="cls-4" x="1052.5" y="1238" width="50" height="50"/>
  <rect class="cls-2" x="1052.5" y="1188" width="50" height="50"/>
  <rect class="cls-3" x="1052.5" y="1138" width="50" height="50"/>
  <rect class="cls-2" x="1052.5" y="1088" width="50" height="50"/>
  <rect class="cls-4" x="1052.5" y="1038" width="50" height="50"/>
  <rect class="cls-4" x="1052.5" y="988" width="50" height="50"/>
  <rect class="cls-2" x="1052.5" y="938" width="50" height="50"/>
  <rect class="cls-2" x="1052.5" y="888" width="50" height="50"/>
  <rect class="cls-4" x="1052.5" y="838" width="50" height="50"/>
  <rect class="cls-4" x="1052.5" y="788" width="50" height="50"/>
  <rect class="cls-4" x="1052.5" y="738" width="50" height="50"/>
  <rect class="cls-4" x="1052.5" y="688" width="50" height="50"/>
  <rect class="cls-4" x="1052.5" y="638" width="50" height="50"/>
  <rect class="cls-4" x="1052.5" y="588" width="50" height="50"/>
  <rect class="cls-4" x="1052.5" y="538" width="50" height="50"/>
  <rect class="cls-4" x="1052.5" y="488" width="50" height="50"/>
  <rect class="cls-4" x="1052.5" y="438" width="50" height="50"/>
  <rect class="cls-1" x="1052.5" y="388" width="50" height="50"/>
  <rect class="cls-1" x="1052.5" y="338" width="50" height="50"/>
  <rect class="cls-1" x="1052.5" y="288" width="50" height="50"/>
  <rect class="cls-4" x="1052.5" y="238" width="50" height="50"/>
  <rect class="cls-1" x="1052.5" y="188" width="50" height="50"/>
  <rect class="cls-4" x="1052.5" y="138" width="50" height="50"/>
  <rect class="cls-2" x="1002.5" y="88" width="50" height="50"/>
  <rect class="cls-3" x="1002.5" y="38" width="50" height="50"/>
  <rect class="cls-3" x="1002.5" y="1338" width="50" height="50"/>
  <rect class="cls-2" x="1002.5" y="1288" width="50" height="50"/>
  <rect class="cls-4" x="1002.5" y="1238" width="50" height="50"/>
  <rect class="cls-2" x="1002.5" y="1188" width="50" height="50"/>
  <rect class="cls-2" x="1002.5" y="1138" width="50" height="50"/>
  <rect class="cls-4" x="1002.5" y="1088" width="50" height="50"/>
  <rect class="cls-4" x="1002.5" y="1038" width="50" height="50"/>
  <rect class="cls-4" x="1002.5" y="988" width="50" height="50"/>
  <rect class="cls-4" x="1002.5" y="938" width="50" height="50"/>
  <rect class="cls-2" x="1002.5" y="888" width="50" height="50"/>
  <rect class="cls-2" x="1002.5" y="838" width="50" height="50"/>
  <rect class="cls-4" x="1002.5" y="788" width="50" height="50"/>
  <rect class="cls-4" x="1002.5" y="738" width="50" height="50"/>
  <rect class="cls-4" x="1002.5" y="688" width="50" height="50"/>
  <rect class="cls-4" x="1002.5" y="638" width="50" height="50"/>
  <rect class="cls-4" x="1002.5" y="588" width="50" height="50"/>
  <rect class="cls-4" x="1002.5" y="538" width="50" height="50"/>
  <rect class="cls-4" x="1002.5" y="488" width="50" height="50"/>
  <rect class="cls-4" x="1002.5" y="438" width="50" height="50"/>
  <rect class="cls-4" x="1002.5" y="388" width="50" height="50"/>
  <rect class="cls-1" x="1002.5" y="338" width="50" height="50"/>
  <rect class="cls-4" x="1002.5" y="288" width="50" height="50"/>
  <rect class="cls-4" x="1002.5" y="238" width="50" height="50"/>
  <rect class="cls-4" x="1002.5" y="188" width="50" height="50"/>
  <rect class="cls-4" x="1002.5" y="138" width="50" height="50"/>
  <rect class="cls-2" x="952.5" y="88" width="50" height="50"/>
  <rect class="cls-3" x="952.5" y="38" width="50" height="50"/>
  <rect class="cls-3" x="952.5" y="1338" width="50" height="50"/>
  <rect class="cls-2" x="952.5" y="1288" width="50" height="50"/>
  <rect class="cls-4" x="952.5" y="1238" width="50" height="50"/>
  <rect class="cls-2" x="952.5" y="1188" width="50" height="50"/>
  <rect class="cls-2" x="952.5" y="1138" width="50" height="50"/>
  <rect class="cls-4" x="952.5" y="1088" width="50" height="50"/>
  <rect class="cls-4" x="952.5" y="1038" width="50" height="50"/>
  <rect class="cls-4" x="952.5" y="988" width="50" height="50"/>
  <rect class="cls-4" x="952.5" y="938" width="50" height="50"/>
  <rect class="cls-4" x="952.5" y="888" width="50" height="50"/>
  <rect class="cls-4" x="952.5" y="838" width="50" height="50"/>
  <rect class="cls-4" x="952.5" y="788" width="50" height="50"/>
  <rect class="cls-2" x="952.5" y="738" width="50" height="50"/>
  <rect class="cls-2" x="952.5" y="688" width="50" height="50"/>
  <rect class="cls-2" x="952.5" y="638" width="50" height="50"/>
  <rect class="cls-4" x="952.5" y="588" width="50" height="50"/>
  <rect class="cls-4" x="952.5" y="538" width="50" height="50"/>
  <rect class="cls-2" x="952.5" y="488" width="50" height="50"/>
  <rect class="cls-4" x="952.5" y="438" width="50" height="50"/>
  <rect class="cls-4" x="952.5" y="388" width="50" height="50"/>
  <rect class="cls-4" x="952.5" y="338" width="50" height="50"/>
  <rect class="cls-4" x="952.5" y="288" width="50" height="50"/>
  <rect class="cls-1" x="952.5" y="238" width="50" height="50"/>
  <rect class="cls-4" x="952.5" y="188" width="50" height="50"/>
  <rect class="cls-1" x="952.5" y="138" width="50" height="50"/>
  <rect class="cls-2" x="902.5" y="88" width="50" height="50"/>
  <rect class="cls-3" x="902.5" y="38" width="50" height="50"/>
  <rect class="cls-3" x="902.5" y="1338" width="50" height="50"/>
  <rect class="cls-2" x="902.5" y="1288" width="50" height="50"/>
  <rect class="cls-4" x="902.5" y="1238" width="50" height="50"/>
  <rect class="cls-2" x="902.5" y="1188" width="50" height="50"/>
  <rect class="cls-2" x="902.5" y="1138" width="50" height="50"/>
  <rect class="cls-2" x="902.5" y="1088" width="50" height="50"/>
  <rect class="cls-4" x="902.5" y="1038" width="50" height="50"/>
  <rect class="cls-4" x="902.5" y="988" width="50" height="50"/>
  <rect class="cls-4" x="902.5" y="938" width="50" height="50"/>
  <rect class="cls-4" x="902.5" y="888" width="50" height="50"/>
  <rect class="cls-4" x="902.5" y="838" width="50" height="50"/>
  <rect class="cls-2" x="902.5" y="788" width="50" height="50"/>
  <rect class="cls-2" x="902.5" y="738" width="50" height="50"/>
  <rect class="cls-2" x="902.5" y="688" width="50" height="50"/>
  <rect class="cls-2" x="902.5" y="638" width="50" height="50"/>
  <rect class="cls-2" x="902.5" y="588" width="50" height="50"/>
  <rect class="cls-4" x="902.5" y="538" width="50" height="50"/>
  <rect class="cls-4" x="902.5" y="488" width="50" height="50"/>
  <rect class="cls-4" x="902.5" y="438" width="50" height="50"/>
  <rect class="cls-4" x="902.5" y="388" width="50" height="50"/>
  <rect class="cls-1" x="902.5" y="338" width="50" height="50"/>
  <rect class="cls-4" x="902.5" y="288" width="50" height="50"/>
  <rect class="cls-4" x="902.5" y="238" width="50" height="50"/>
  <rect class="cls-4" x="902.5" y="188" width="50" height="50"/>
  <rect class="cls-4" x="902.5" y="138" width="50" height="50"/>
  <rect class="cls-2" x="852.5" y="88" width="50" height="50"/>
  <rect class="cls-3" x="852.5" y="38" width="50" height="50"/>
  <rect class="cls-3" x="852.5" y="1338" width="50" height="50"/>
  <rect class="cls-2" x="852.5" y="1288" width="50" height="50"/>
  <rect class="cls-4" x="852.5" y="1238" width="50" height="50"/>
  <rect class="cls-4" x="852.5" y="1188" width="50" height="50"/>
  <rect class="cls-2" x="852.5" y="1138" width="50" height="50"/>
  <rect class="cls-2" x="852.5" y="1088" width="50" height="50"/>
  <rect class="cls-2" x="852.5" y="1038" width="50" height="50"/>
  <rect class="cls-2" x="852.5" y="988" width="50" height="50"/>
  <rect class="cls-2" x="852.5" y="938" width="50" height="50"/>
  <rect class="cls-2" x="852.5" y="888" width="50" height="50"/>
  <rect class="cls-2" x="852.5" y="838" width="50" height="50"/>
  <rect class="cls-2" x="852.5" y="788" width="50" height="50"/>
  <rect class="cls-4" x="852.5" y="738" width="50" height="50"/>
  <rect class="cls-4" x="852.5" y="688" width="50" height="50"/>
  <rect class="cls-2" x="852.5" y="638" width="50" height="50"/>
  <rect class="cls-2" x="852.5" y="588" width="50" height="50"/>
  <rect class="cls-4" x="852.5" y="538" width="50" height="50"/>
  <rect class="cls-4" x="852.5" y="488" width="50" height="50"/>
  <rect class="cls-4" x="852.5" y="438" width="50" height="50"/>
  <rect class="cls-4" x="852.5" y="388" width="50" height="50"/>
  <rect class="cls-4" x="852.5" y="338" width="50" height="50"/>
  <rect class="cls-4" x="852.5" y="288" width="50" height="50"/>
  <rect class="cls-4" x="852.5" y="238" width="50" height="50"/>
  <rect class="cls-1" x="852.5" y="188" width="50" height="50"/>
  <rect class="cls-4" x="852.5" y="138" width="50" height="50"/>
  <rect class="cls-2" x="802.5" y="88" width="50" height="50"/>
  <rect class="cls-3" x="802.5" y="38" width="50" height="50"/>
  <rect class="cls-3" x="802.5" y="1338" width="50" height="50"/>
  <rect class="cls-3" x="802.5" y="1288" width="50" height="50"/>
  <rect class="cls-2" x="802.5" y="1238" width="50" height="50"/>
  <rect class="cls-4" x="802.5" y="1188" width="50" height="50"/>
  <rect class="cls-4" x="802.5" y="1138" width="50" height="50"/>
  <rect class="cls-2" x="802.5" y="1088" width="50" height="50"/>
  <rect class="cls-2" x="802.5" y="1038" width="50" height="50"/>
  <rect class="cls-2" x="802.5" y="988" width="50" height="50"/>
  <rect class="cls-2" x="802.5" y="938" width="50" height="50"/>
  <rect class="cls-2" x="802.5" y="888" width="50" height="50"/>
  <rect class="cls-4" x="802.5" y="838" width="50" height="50"/>
  <rect class="cls-4" x="802.5" y="788" width="50" height="50"/>
  <rect class="cls-4" x="802.5" y="738" width="50" height="50"/>
  <rect class="cls-4" x="802.5" y="688" width="50" height="50"/>
  <rect class="cls-2" x="802.5" y="638" width="50" height="50"/>
  <rect class="cls-2" x="802.5" y="588" width="50" height="50"/>
  <rect class="cls-4" x="802.5" y="538" width="50" height="50"/>
  <rect class="cls-4" x="802.5" y="488" width="50" height="50"/>
  <rect class="cls-4" x="802.5" y="438" width="50" height="50"/>
  <rect class="cls-4" x="802.5" y="388" width="50" height="50"/>
  <rect class="cls-4" x="802.5" y="338" width="50" height="50"/>
  <rect class="cls-4" x="802.5" y="288" width="50" height="50"/>
  <rect class="cls-1" x="802.5" y="238" width="50" height="50"/>
  <rect class="cls-4" x="802.5" y="188" width="50" height="50"/>
  <rect class="cls-4" x="802.5" y="138" width="50" height="50"/>
  <rect class="cls-2" x="752.5" y="88" width="50" height="50"/>
  <rect class="cls-3" x="752.5" y="38" width="50" height="50"/>
  <rect class="cls-3" x="752.5" y="1288" width="50" height="50"/>
  <rect class="cls-2" x="752.5" y="1238" width="50" height="50"/>
  <rect class="cls-4" x="752.5" y="1188" width="50" height="50"/>
  <rect class="cls-4" x="752.5" y="1138" width="50" height="50"/>
  <rect class="cls-4" x="752.5" y="1088" width="50" height="50"/>
  <rect class="cls-4" x="752.5" y="1038" width="50" height="50"/>
  <rect class="cls-2" x="752.5" y="988" width="50" height="50"/>
  <rect class="cls-4" x="752.5" y="938" width="50" height="50"/>
  <rect class="cls-4" x="752.5" y="888" width="50" height="50"/>
  <rect class="cls-4" x="752.5" y="838" width="50" height="50"/>
  <rect class="cls-4" x="752.5" y="788" width="50" height="50"/>
  <rect class="cls-4" x="752.5" y="738" width="50" height="50"/>
  <rect class="cls-4" x="752.5" y="688" width="50" height="50"/>
  <rect class="cls-4" x="752.5" y="638" width="50" height="50"/>
  <rect class="cls-2" x="752.5" y="588" width="50" height="50"/>
  <rect class="cls-4" x="752.5" y="538" width="50" height="50"/>
  <rect class="cls-4" x="752.5" y="488" width="50" height="50"/>
  <rect class="cls-4" x="752.5" y="438" width="50" height="50"/>
  <rect class="cls-4" x="752.5" y="388" width="50" height="50"/>
  <rect class="cls-4" x="752.5" y="338" width="50" height="50"/>
  <rect class="cls-1" x="752.5" y="288" width="50" height="50"/>
  <rect class="cls-4" x="752.5" y="238" width="50" height="50"/>
  <rect class="cls-4" x="752.5" y="188" width="50" height="50"/>
  <rect class="cls-1" x="752.5" y="138" width="50" height="50"/>
  <rect class="cls-2" x="702.5" y="88" width="50" height="50"/>
  <rect class="cls-3" x="702.5" y="38" width="50" height="50"/>
  <rect class="cls-3" x="702.5" y="1288" width="50" height="50"/>
  <rect class="cls-3" x="702.5" y="1238" width="50" height="50"/>
  <rect class="cls-2" x="702.5" y="1188" width="50" height="50"/>
  <rect class="cls-4" x="702.5" y="1138" width="50" height="50"/>
  <rect class="cls-4" x="702.5" y="1088" width="50" height="50"/>
  <rect class="cls-4" x="702.5" y="1038" width="50" height="50"/>
  <rect class="cls-4" x="702.5" y="988" width="50" height="50"/>
  <rect class="cls-4" x="702.5" y="938" width="50" height="50"/>
  <rect class="cls-4" x="702.5" y="888" width="50" height="50"/>
  <rect class="cls-4" x="702.5" y="838" width="50" height="50"/>
  <rect class="cls-4" x="702.5" y="788" width="50" height="50"/>
  <rect class="cls-4" x="702.5" y="738" width="50" height="50"/>
  <rect class="cls-4" x="702.5" y="688" width="50" height="50"/>
  <rect class="cls-4" x="702.5" y="638" width="50" height="50"/>
  <rect class="cls-2" x="702.5" y="588" width="50" height="50"/>
  <rect class="cls-4" x="702.5" y="538" width="50" height="50"/>
  <rect class="cls-4" x="702.5" y="488" width="50" height="50"/>
  <rect class="cls-4" x="702.5" y="438" width="50" height="50"/>
  <rect class="cls-4" x="702.5" y="388" width="50" height="50"/>
  <rect class="cls-1" x="702.5" y="338" width="50" height="50"/>
  <rect class="cls-1" x="702.5" y="288" width="50" height="50"/>
  <rect class="cls-1" x="702.5" y="238" width="50" height="50"/>
  <rect class="cls-4" x="702.5" y="188" width="50" height="50"/>
  <rect class="cls-4" x="702.5" y="138" width="50" height="50"/>
  <rect class="cls-2" x="652.5" y="88" width="50" height="50"/>
  <rect class="cls-3" x="652.5" y="38" width="50" height="50"/>
  <rect class="cls-3" x="652.5" y="1238" width="50" height="50"/>
  <rect class="cls-3" x="652.5" y="1188" width="50" height="50"/>
  <rect class="cls-2" x="652.5" y="1138" width="50" height="50"/>
  <rect class="cls-4" x="652.5" y="1088" width="50" height="50"/>
  <rect class="cls-4" x="652.5" y="1038" width="50" height="50"/>
  <rect class="cls-4" x="652.5" y="988" width="50" height="50"/>
  <rect class="cls-4" x="652.5" y="938" width="50" height="50"/>
  <rect class="cls-4" x="652.5" y="888" width="50" height="50"/>
  <rect class="cls-4" x="652.5" y="838" width="50" height="50"/>
  <rect class="cls-4" x="652.5" y="788" width="50" height="50"/>
  <rect class="cls-4" x="652.5" y="738" width="50" height="50"/>
  <rect class="cls-4" x="652.5" y="688" width="50" height="50"/>
  <rect class="cls-4" x="652.5" y="638" width="50" height="50"/>
  <rect class="cls-2" x="652.5" y="588" width="50" height="50"/>
  <rect class="cls-4" x="652.5" y="538" width="50" height="50"/>
  <rect class="cls-4" x="652.5" y="488" width="50" height="50"/>
  <rect class="cls-4" x="652.5" y="438" width="50" height="50"/>
  <rect class="cls-4" x="652.5" y="388" width="50" height="50"/>
  <rect class="cls-4" x="652.5" y="338" width="50" height="50"/>
  <rect class="cls-1" x="652.5" y="288" width="50" height="50"/>
  <rect class="cls-4" x="652.5" y="238" width="50" height="50"/>
  <rect class="cls-4" x="652.5" y="188" width="50" height="50"/>
  <rect class="cls-2" x="652.5" y="138" width="50" height="50"/>
  <rect class="cls-2" x="602.5" y="138" width="50" height="50"/>
  <rect class="cls-3" x="602.5" y="88" width="50" height="50"/>
  <rect class="cls-3" x="602.5" y="38" width="50" height="50"/>
  <rect class="cls-3" x="602.5" y="1188" width="50" height="50"/>
  <rect class="cls-3" x="602.5" y="1138" width="50" height="50"/>
  <rect class="cls-2" x="602.5" y="1088" width="50" height="50"/>
  <rect class="cls-4" x="602.5" y="1038" width="50" height="50"/>
  <rect class="cls-4" x="602.5" y="988" width="50" height="50"/>
  <rect class="cls-4" x="602.5" y="938" width="50" height="50"/>
  <rect class="cls-4" x="602.5" y="888" width="50" height="50"/>
  <rect class="cls-4" x="602.5" y="838" width="50" height="50"/>
  <rect class="cls-4" x="602.5" y="788" width="50" height="50"/>
  <rect class="cls-4" x="602.5" y="738" width="50" height="50"/>
  <rect class="cls-1" x="602.5" y="688" width="50" height="50"/>
  <rect class="cls-4" x="602.5" y="638" width="50" height="50"/>
  <rect class="cls-4" x="602.5" y="588" width="50" height="50"/>
  <rect class="cls-4" x="602.5" y="538" width="50" height="50"/>
  <rect class="cls-4" x="602.5" y="488" width="50" height="50"/>
  <rect class="cls-4" x="602.5" y="438" width="50" height="50"/>
  <rect class="cls-4" x="602.5" y="388" width="50" height="50"/>
  <rect class="cls-4" x="602.5" y="338" width="50" height="50"/>
  <rect class="cls-4" x="602.5" y="288" width="50" height="50"/>
  <rect class="cls-4" x="602.5" y="238" width="50" height="50"/>
  <rect class="cls-1" x="602.5" y="188" width="50" height="50"/>
  <rect class="cls-4" x="552.5" y="188" width="50" height="50"/>
  <rect class="cls-2" x="552.5" y="138" width="50" height="50"/>
  <rect class="cls-3" x="552.5" y="88" width="50" height="50"/>
  <rect class="cls-3" x="552.5" y="1138" width="50" height="50"/>
  <rect class="cls-3" x="552.5" y="1088" width="50" height="50"/>
  <rect class="cls-2" x="552.5" y="1038" width="50" height="50"/>
  <rect class="cls-4" x="552.5" y="988" width="50" height="50"/>
  <rect class="cls-4" x="552.5" y="938" width="50" height="50"/>
  <rect class="cls-4" x="552.5" y="888" width="50" height="50"/>
  <rect class="cls-1" x="552.5" y="838" width="50" height="50"/>
  <rect class="cls-4" x="552.5" y="788" width="50" height="50"/>
  <rect class="cls-1" x="552.5" y="738" width="50" height="50"/>
  <rect class="cls-1" x="552.5" y="688" width="50" height="50"/>
  <rect class="cls-1" x="552.5" y="638" width="50" height="50"/>
  <rect class="cls-4" x="552.5" y="588" width="50" height="50"/>
  <rect class="cls-4" x="552.5" y="538" width="50" height="50"/>
  <rect class="cls-4" x="552.5" y="488" width="50" height="50"/>
  <rect class="cls-4" x="552.5" y="438" width="50" height="50"/>
  <rect class="cls-4" x="552.5" y="388" width="50" height="50"/>
  <rect class="cls-4" x="552.5" y="338" width="50" height="50"/>
  <rect class="cls-4" x="552.5" y="288" width="50" height="50"/>
  <rect class="cls-4" x="552.5" y="238" width="50" height="50"/>
  <rect class="cls-4" x="502.5" y="238" width="50" height="50"/>
  <rect class="cls-2" x="502.5" y="188" width="50" height="50"/>
  <rect class="cls-3" x="502.5" y="138" width="50" height="50"/>
  <rect class="cls-3" x="502.5" y="1088" width="50" height="50"/>
  <rect class="cls-3" x="502.5" y="1038" width="50" height="50"/>
  <rect class="cls-2" x="502.5" y="988" width="50" height="50"/>
  <rect class="cls-4" x="502.5" y="938" width="50" height="50"/>
  <rect class="cls-4" x="502.5" y="888" width="50" height="50"/>
  <rect class="cls-4" x="502.5" y="838" width="50" height="50"/>
  <rect class="cls-4" x="502.5" y="788" width="50" height="50"/>
  <rect class="cls-4" x="502.5" y="738" width="50" height="50"/>
  <rect class="cls-1" x="502.5" y="688" width="50" height="50"/>
  <rect class="cls-4" x="502.5" y="638" width="50" height="50"/>
  <rect class="cls-4" x="502.5" y="588" width="50" height="50"/>
  <rect class="cls-4" x="502.5" y="538" width="50" height="50"/>
  <rect class="cls-4" x="502.5" y="488" width="50" height="50"/>
  <rect class="cls-4" x="502.5" y="438" width="50" height="50"/>
  <rect class="cls-4" x="502.5" y="388" width="50" height="50"/>
  <rect class="cls-4" x="502.5" y="338" width="50" height="50"/>
  <rect class="cls-4" x="502.5" y="288" width="50" height="50"/>
  <rect class="cls-3" x="452.5" y="188" width="50" height="50"/>
  <rect class="cls-3" x="452.5" y="1038" width="50" height="50"/>
  <rect class="cls-3" x="452.5" y="988" width="50" height="50"/>
  <rect class="cls-2" x="452.5" y="938" width="50" height="50"/>
  <rect class="cls-4" x="452.5" y="888" width="50" height="50"/>
  <rect class="cls-4" x="452.5" y="838" width="50" height="50"/>
  <rect class="cls-1" x="452.5" y="788" width="50" height="50"/>
  <rect class="cls-4" x="452.5" y="738" width="50" height="50"/>
  <rect class="cls-4" x="452.5" y="688" width="50" height="50"/>
  <rect class="cls-4" x="452.5" y="638" width="50" height="50"/>
  <rect class="cls-4" x="452.5" y="588" width="50" height="50"/>
  <rect class="cls-4" x="452.5" y="538" width="50" height="50"/>
  <rect class="cls-4" x="452.5" y="488" width="50" height="50"/>
  <rect class="cls-4" x="452.5" y="438" width="50" height="50"/>
  <rect class="cls-4" x="452.5" y="388" width="50" height="50"/>
  <rect class="cls-4" x="452.5" y="338" width="50" height="50"/>
  <rect class="cls-2" x="452.5" y="238" width="50" height="50"/>
  <rect class="cls-2" x="452.5" y="288" width="50" height="50"/>
  <rect class="cls-3" x="402.5" y="188" width="50" height="50"/>
  <rect class="cls-3" x="402.5" y="138" width="50" height="50"/>
  <rect class="cls-3" x="402.5" y="988" width="50" height="50"/>
  <rect class="cls-3" x="402.5" y="938" width="50" height="50"/>
  <rect class="cls-2" x="402.5" y="888" width="50" height="50"/>
  <rect class="cls-4" x="402.5" y="838" width="50" height="50"/>
  <rect class="cls-4" x="402.5" y="788" width="50" height="50"/>
  <rect class="cls-4" x="402.5" y="738" width="50" height="50"/>
  <rect class="cls-4" x="402.5" y="688" width="50" height="50"/>
  <rect class="cls-4" x="402.5" y="638" width="50" height="50"/>
  <rect class="cls-4" x="402.5" y="588" width="50" height="50"/>
  <rect class="cls-4" x="402.5" y="538" width="50" height="50"/>
  <rect class="cls-4" x="402.5" y="488" width="50" height="50"/>
  <rect class="cls-4" x="402.5" y="438" width="50" height="50"/>
  <rect class="cls-4" x="402.5" y="388" width="50" height="50"/>
  <rect class="cls-4" x="402.5" y="338" width="50" height="50"/>
  <rect class="cls-4" x="402.5" y="288" width="50" height="50"/>
  <rect class="cls-2" x="402.5" y="238" width="50" height="50"/>
  <rect class="cls-2" x="352.5" y="188" width="50" height="50"/>
  <rect class="cls-3" x="352.5" y="138" width="50" height="50"/>
  <rect class="cls-3" x="352.5" y="938" width="50" height="50"/>
  <rect class="cls-3" x="352.5" y="888" width="50" height="50"/>
  <rect class="cls-2" x="352.5" y="838" width="50" height="50"/>
  <rect class="cls-2" x="352.5" y="788" width="50" height="50"/>
  <rect class="cls-4" x="352.5" y="738" width="50" height="50"/>
  <rect class="cls-4" x="352.5" y="688" width="50" height="50"/>
  <rect class="cls-4" x="352.5" y="638" width="50" height="50"/>
  <rect class="cls-4" x="352.5" y="588" width="50" height="50"/>
  <rect class="cls-2" x="352.5" y="538" width="50" height="50"/>
  <rect class="cls-4" x="352.5" y="488" width="50" height="50"/>
  <rect class="cls-4" x="352.5" y="438" width="50" height="50"/>
  <rect class="cls-4" x="352.5" y="388" width="50" height="50"/>
  <rect class="cls-4" x="352.5" y="338" width="50" height="50"/>
  <rect class="cls-4" x="352.5" y="288" width="50" height="50"/>
  <rect class="cls-4" x="352.5" y="238" width="50" height="50"/>
  <rect class="cls-2" x="302.5" y="188" width="50" height="50"/>
  <rect class="cls-3" x="302.5" y="138" width="50" height="50"/>
  <rect class="cls-3" x="302.5" y="888" width="50" height="50"/>
  <rect class="cls-3" x="302.5" y="838" width="50" height="50"/>
  <rect class="cls-3" x="302.5" y="788" width="50" height="50"/>
  <rect class="cls-2" x="302.5" y="738" width="50" height="50"/>
  <rect class="cls-2" x="302.5" y="688" width="50" height="50"/>
  <rect class="cls-4" x="302.5" y="638" width="50" height="50"/>
  <rect class="cls-4" x="302.5" y="588" width="50" height="50"/>
  <rect class="cls-2" x="302.5" y="538" width="50" height="50"/>
  <rect class="cls-4" x="302.5" y="488" width="50" height="50"/>
  <rect class="cls-4" x="302.5" y="438" width="50" height="50"/>
  <rect class="cls-4" x="302.5" y="388" width="50" height="50"/>
  <rect class="cls-4" x="302.5" y="338" width="50" height="50"/>
  <rect class="cls-4" x="302.5" y="288" width="50" height="50"/>
  <rect class="cls-4" x="302.5" y="238" width="50" height="50"/>
  <rect class="cls-2" x="252.5" y="188" width="50" height="50"/>
  <rect class="cls-3" x="252.5" y="138" width="50" height="50"/>
  <rect class="cls-3" x="252.5" y="788" width="50" height="50"/>
  <rect class="cls-3" x="252.5" y="738" width="50" height="50"/>
  <rect class="cls-3" x="252.5" y="688" width="50" height="50"/>
  <rect class="cls-2" x="252.5" y="638" width="50" height="50"/>
  <rect class="cls-4" x="252.5" y="588" width="50" height="50"/>
  <rect class="cls-4" x="252.5" y="538" width="50" height="50"/>
  <rect class="cls-2" x="252.5" y="488" width="50" height="50"/>
  <rect class="cls-4" x="252.5" y="438" width="50" height="50"/>
  <rect class="cls-4" x="252.5" y="388" width="50" height="50"/>
  <rect class="cls-4" x="252.5" y="338" width="50" height="50"/>
  <rect class="cls-4" x="252.5" y="288" width="50" height="50"/>
  <rect class="cls-4" x="252.5" y="238" width="50" height="50"/>
  <rect class="cls-2" x="202.5" y="188" width="50" height="50"/>
  <rect class="cls-3" x="202.5" y="138" width="50" height="50"/>
  <rect class="cls-3" x="202.5" y="688" width="50" height="50"/>
  <rect class="cls-3" x="202.5" y="638" width="50" height="50"/>
  <rect class="cls-2" x="202.5" y="588" width="50" height="50"/>
  <rect class="cls-4" x="202.5" y="538" width="50" height="50"/>
  <rect class="cls-4" x="202.5" y="488" width="50" height="50"/>
  <rect class="cls-2" x="202.5" y="438" width="50" height="50"/>
  <rect class="cls-4" x="202.5" y="388" width="50" height="50"/>
  <rect class="cls-4" x="202.5" y="338" width="50" height="50"/>
  <rect class="cls-4" x="202.5" y="288" width="50" height="50"/>
  <rect class="cls-4" x="202.5" y="238" width="50" height="50"/>
  <rect class="cls-2" x="152.5" y="188" width="50" height="50"/>
  <rect class="cls-3" x="152.5" y="138" width="50" height="50"/>
  <rect class="cls-3" x="152.5" y="638" width="50" height="50"/>
  <rect class="cls-3" x="152.5" y="588" width="50" height="50"/>
  <rect class="cls-2" x="152.5" y="538" width="50" height="50"/>
  <rect class="cls-4" x="152.5" y="488" width="50" height="50"/>
  <rect class="cls-4" x="152.5" y="438" width="50" height="50"/>
  <rect class="cls-2" x="152.5" y="388" width="50" height="50"/>
  <rect class="cls-4" x="152.5" y="338" width="50" height="50"/>
  <rect class="cls-4" x="152.5" y="288" width="50" height="50"/>
  <rect class="cls-4" x="152.5" y="238" width="50" height="50"/>
  <rect class="cls-2" x="102.5" y="188" width="50" height="50"/>
  <rect class="cls-3" x="102.5" y="138" width="50" height="50"/>
  <rect class="cls-3" x="102.5" y="588" width="50" height="50"/>
  <rect class="cls-3" x="102.5" y="538" width="50" height="50"/>
  <rect class="cls-2" x="102.5" y="488" width="50" height="50"/>
  <rect class="cls-4" x="102.5" y="438" width="50" height="50"/>
  <rect class="cls-4" x="102.5" y="388" width="50" height="50"/>
  <rect class="cls-4" x="102.5" y="338" width="50" height="50"/>
  <rect class="cls-4" x="102.5" y="288" width="50" height="50"/>
  <rect class="cls-4" x="102.5" y="238" width="50" height="50"/>
  <rect class="cls-2" x="52.5" y="238" width="50" height="50"/>
  <rect class="cls-3" x="52.5" y="188" width="50" height="50"/>
  <rect class="cls-3" x="52.5" y="138" width="50" height="50"/>
  <rect class="cls-3" x="52.5" y="538" width="50" height="50"/>
  <rect class="cls-3" x="52.5" y="488" width="50" height="50"/>
  <rect class="cls-2" x="52.5" y="438" width="50" height="50"/>
  <rect class="cls-2" x="52.5" y="388" width="50" height="50"/>
  <rect class="cls-2" x="52.5" y="338" width="50" height="50"/>
  <rect class="cls-2" x="52.5" y="288" width="50" height="50"/>
  <rect class="cls-3" x="2.5" y="288" width="50" height="50"/>
  <rect class="cls-3" x="2.5" y="238" width="50" height="50"/>
  <rect class="cls-3" x="2.5" y="188" width="50" height="50"/>
  <rect class="cls-3" x="2.5" y="338" width="50" height="50"/>
  <rect class="cls-3" x="2.5" y="388" width="50" height="50"/>
  <rect class="cls-3" x="2.5" y="438" width="50" height="50"/>
  <rect class="cls-3" x="2.5" y="488" width="50" height="50"/>
</svg>